<svg xmlns="http://www.w3.org/2000/svg" xmlns:xlink="http://www.w3.org/1999/xlink" width="500" zoomAndPan="magnify" viewBox="0 0 375 374.999991" height="500" preserveAspectRatio="xMidYMid meet" version="1.0"><defs><g/></defs><rect x="-37.5" width="450" fill="#ffffff" y="-37.499999" height="449.999989" fill-opacity="1"/><rect x="-37.5" width="450" fill="#0b1220" y="-37.499999" height="449.999989" fill-opacity="1"/><g fill="#ffffff" fill-opacity="1"><g transform="translate(71.497378, 240.250025)"><g><path d="M 123.828125 -72.609375 L 124.8125 -63.078125 L 25.234375 -52.796875 C 27.960938 -43.191406 33.503906 -35.695312 41.859375 -30.3125 C 50.410156 -24.789062 59.488281 -22.523438 69.09375 -23.515625 C 75.601562 -24.191406 81.695312 -26.382812 87.375 -30.09375 C 92.90625 -33.601562 97.367188 -38.226562 100.765625 -43.96875 L 121.34375 -46.09375 C 117.675781 -34.789062 111.359375 -25.550781 102.390625 -18.375 C 93.265625 -11.019531 83.726562 -6.832031 73.78125 -5.8125 C 63.65625 -4.757812 54.914062 -5.410156 47.5625 -7.765625 C 40.039062 -10.109375 33.347656 -13.664062 27.484375 -18.4375 C 14.648438 -28.5625 7.378906 -41.851562 5.671875 -58.3125 C 3.992188 -74.613281 8.382812 -89.195312 18.84375 -102.0625 C 29.144531 -114.738281 42.445312 -121.921875 58.75 -123.609375 C 74.53125 -125.234375 88.914062 -121.085938 101.90625 -111.171875 C 114.90625 -101.066406 122.210938 -88.210938 123.828125 -72.609375 Z M 104.171875 -76.546875 C 101.117188 -85.941406 95.488281 -93.425781 87.28125 -99 C 79.101562 -104.382812 70.210938 -106.582031 60.609375 -105.59375 C 45.847656 -104.070312 34.953125 -96.269531 27.921875 -82.1875 C 25.765625 -77.8125 24.425781 -73.164062 23.90625 -68.25 Z M 104.171875 -76.546875 "/></g></g></g><g fill="#ffffff" fill-opacity="1"><g transform="translate(298.006776, 128.440153)"><g><path d="M -124.359375 76.390625 L -125.5625 66.734375 L -24.546875 54.203125 C -27.523438 44.492188 -33.316406 36.992188 -41.921875 31.703125 C -50.710938 26.253906 -59.984375 24.132812 -69.734375 25.34375 C -76.347656 26.164062 -82.503906 28.523438 -88.203125 32.421875 C -93.753906 36.109375 -98.195312 40.894531 -101.53125 46.78125 L -122.421875 49.375 C -118.898438 37.820312 -112.660156 28.300781 -103.703125 20.8125 C -94.585938 13.144531 -84.976562 8.6875 -74.875 7.4375 C -64.613281 6.164062 -55.71875 6.65625 -48.1875 8.90625 C -40.5 11.125 -33.617188 14.59375 -27.546875 19.3125 C -14.285156 29.332031 -6.617188 42.691406 -4.546875 59.390625 C -2.492188 75.921875 -6.648438 90.84375 -17.015625 104.15625 C -27.234375 117.257812 -40.609375 124.835938 -57.140625 126.890625 C -73.148438 128.878906 -87.859375 124.957031 -101.265625 115.125 C -114.691406 105.132812 -122.390625 92.222656 -124.359375 76.390625 Z M -104.296875 80.015625 C -100.992188 89.484375 -95.117188 96.96875 -86.671875 102.46875 C -78.234375 107.769531 -69.144531 109.816406 -59.40625 108.609375 C -44.4375 106.753906 -33.523438 98.597656 -26.671875 84.140625 C -24.566406 79.640625 -23.296875 74.894531 -22.859375 69.90625 Z M -104.296875 80.015625 "/></g></g></g><path stroke-linecap="butt" transform="matrix(-0.0740619, -0.746334, 0.746334, -0.0740619, 241.52864, 274.582571)" fill="none" stroke-linejoin="miter" d="M -0.00136258 2.49994 L 194.773603 2.499427 " stroke="#0b1220" stroke-width="5" stroke-opacity="1" stroke-miterlimit="4"/><path stroke-linecap="butt" transform="matrix(-0.0740619, -0.746334, 0.746334, -0.0740619, 142.372817, 245.063494)" fill="none" stroke-linejoin="miter" d="M -0.000702948 2.499433 L 194.774262 2.498921 " stroke="#0b1220" stroke-width="5" stroke-opacity="1" stroke-miterlimit="4"/></svg>