<svg xmlns="http://www.w3.org/2000/svg" xmlns:xlink="http://www.w3.org/1999/xlink" width="500" zoomAndPan="magnify" viewBox="0 0 375 374.999991" height="500" preserveAspectRatio="xMidYMid meet" version="1.0"><defs><g/></defs><rect x="-37.5" width="450" fill="#ffffff" y="-37.499999" height="449.999989" fill-opacity="1"/><rect x="-37.5" width="450" fill="#ffffff" y="-37.499999" height="449.999989" fill-opacity="1"/><g fill="#0b1220" fill-opacity="1"><g transform="translate(22.175811, 275.12053)"><g><path d="M 178.453125 -104.640625 L 179.875 -90.921875 L 36.359375 -76.09375 C 40.296875 -62.257812 48.285156 -51.460938 60.328125 -43.703125 C 72.640625 -35.734375 85.71875 -32.460938 99.5625 -33.890625 C 108.957031 -34.859375 117.75 -38.019531 125.9375 -43.375 C 133.914062 -48.445312 140.351562 -55.109375 145.25 -63.359375 L 174.921875 -66.421875 C 169.597656 -50.140625 160.46875 -36.828125 147.53125 -26.484375 C 134.382812 -15.878906 120.648438 -9.835938 106.328125 -8.359375 C 91.734375 -6.859375 79.140625 -7.804688 68.546875 -11.203125 C 57.710938 -14.578125 48.066406 -19.703125 39.609375 -26.578125 C 21.109375 -41.148438 10.632812 -60.304688 8.1875 -84.046875 C 5.757812 -107.523438 12.082031 -128.539062 27.15625 -147.09375 C 42.007812 -165.363281 61.175781 -175.710938 84.65625 -178.140625 C 107.40625 -180.492188 128.140625 -174.515625 146.859375 -160.203125 C 165.597656 -145.648438 176.128906 -127.128906 178.453125 -104.640625 Z M 150.125 -110.328125 C 145.726562 -123.859375 137.617188 -134.632812 125.796875 -142.65625 C 113.992188 -150.445312 101.171875 -153.625 87.328125 -152.1875 C 66.066406 -149.988281 50.363281 -138.742188 40.21875 -118.453125 C 37.125 -112.128906 35.195312 -105.4375 34.4375 -98.375 Z M 150.125 -110.328125 "/></g></g></g><g fill="#0b1220" fill-opacity="1"><g transform="translate(348.637775, 113.989804)"><g><path d="M -179.25 110.09375 L -180.96875 96.171875 L -35.375 78.109375 C -39.65625 64.117188 -48 53.3125 -60.40625 45.6875 C -73.09375 37.832031 -86.460938 34.78125 -100.515625 36.53125 C -110.046875 37.707031 -118.921875 41.101562 -127.140625 46.71875 C -135.128906 52.050781 -141.523438 58.957031 -146.328125 67.4375 L -176.421875 71.1875 C -171.359375 54.507812 -162.367188 40.78125 -149.453125 30 C -136.304688 18.945312 -122.460938 12.519531 -107.921875 10.71875 C -93.117188 8.875 -80.300781 9.578125 -69.46875 12.828125 C -58.363281 16.035156 -48.441406 21.046875 -39.703125 27.859375 C -20.597656 42.296875 -9.554688 61.550781 -6.578125 85.625 C -3.617188 109.445312 -9.597656 130.941406 -24.515625 150.109375 C -39.242188 168.992188 -58.519531 179.914062 -82.34375 182.875 C -105.414062 185.738281 -126.613281 180.09375 -145.9375 165.9375 C -165.3125 151.539062 -176.414062 132.925781 -179.25 110.09375 Z M -150.3125 115.296875 C -145.550781 128.972656 -137.085938 139.765625 -124.921875 147.671875 C -112.753906 155.328125 -99.648438 158.285156 -85.609375 156.546875 C -64.035156 153.867188 -48.304688 142.113281 -38.421875 121.28125 C -35.410156 114.789062 -33.585938 107.941406 -32.953125 100.734375 Z M -150.3125 115.296875 "/></g></g></g><path stroke-linecap="butt" transform="matrix(-0.0740619, -0.746334, 0.746334, -0.0740619, 266.934069, 324.63115)" fill="none" stroke-linejoin="miter" d="M -0.00118423 3.997957 L 280.714447 3.99965 " stroke="#ffffff" stroke-width="8" stroke-opacity="1" stroke-miterlimit="4"/><path stroke-linecap="butt" transform="matrix(-0.0740619, -0.746334, 0.746334, -0.0740619, 124.0276, 282.087404)" fill="none" stroke-linejoin="miter" d="M -0.00224434 3.998146 L 280.713387 3.999838 " stroke="#ffffff" stroke-width="8" stroke-opacity="1" stroke-miterlimit="4"/></svg>