<svg xmlns="http://www.w3.org/2000/svg" xmlns:xlink="http://www.w3.org/1999/xlink" width="500" zoomAndPan="magnify" viewBox="0 0 375 374.999991" height="500" preserveAspectRatio="xMidYMid meet" version="1.0"><defs><g/></defs><rect x="-37.5" width="450" fill="#ffffff" y="-37.499999" height="449.999989" fill-opacity="1"/><rect x="-37.5" width="450" fill="#0b1220" y="-37.499999" height="449.999989" fill-opacity="1"/><g fill="#ffffff" fill-opacity="1"><g transform="translate(26.052766, 268.684251)"><g><path d="M 176.734375 -103.609375 L 178.125 -90.03125 L 36 -75.359375 C 39.894531 -61.648438 47.800781 -50.957031 59.71875 -43.28125 C 71.925781 -35.394531 84.882812 -32.160156 98.59375 -33.578125 C 107.894531 -34.535156 116.597656 -37.660156 124.703125 -42.953125 C 132.609375 -47.972656 138.984375 -54.566406 143.828125 -62.734375 L 173.203125 -65.78125 C 167.953125 -49.644531 158.921875 -36.460938 146.109375 -26.234375 C 133.097656 -15.734375 119.488281 -9.75 105.28125 -8.28125 C 90.84375 -6.789062 78.378906 -7.734375 67.890625 -11.109375 C 57.148438 -14.441406 47.59375 -19.507812 39.21875 -26.3125 C 20.894531 -40.75 10.519531 -59.71875 8.09375 -83.21875 C 5.6875 -106.476562 11.953125 -127.289062 26.890625 -145.65625 C 41.597656 -163.75 60.582031 -174 83.84375 -176.40625 C 106.363281 -178.726562 126.882812 -172.8125 145.40625 -158.65625 C 163.988281 -144.238281 174.429688 -125.890625 176.734375 -103.609375 Z M 148.671875 -109.25 C 144.316406 -122.65625 136.285156 -133.335938 124.578125 -141.296875 C 112.890625 -148.992188 100.191406 -152.132812 86.484375 -150.71875 C 65.429688 -148.539062 49.878906 -137.40625 39.828125 -117.3125 C 36.765625 -111.050781 34.859375 -104.421875 34.109375 -97.421875 Z M 148.671875 -109.25 "/></g></g></g><g fill="#ffffff" fill-opacity="1"><g transform="translate(349.322598, 109.111435)"><g><path d="M -177.46875 109.03125 L -179.1875 95.25 L -35.03125 77.359375 C -39.28125 63.503906 -47.539062 52.800781 -59.8125 45.25 C -72.375 37.476562 -85.613281 34.457031 -99.53125 36.1875 C -108.96875 37.351562 -117.75 40.710938 -125.875 46.265625 C -133.800781 51.523438 -140.144531 58.363281 -144.90625 66.78125 L -174.703125 70.46875 C -169.691406 53.96875 -160.785156 40.382812 -147.984375 29.71875 C -134.972656 18.769531 -121.269531 12.398438 -106.875 10.609375 C -92.207031 8.796875 -79.503906 9.488281 -68.765625 12.6875 C -57.785156 15.875 -47.96875 20.832031 -39.3125 27.5625 C -20.394531 41.863281 -9.457031 60.929688 -6.5 84.765625 C -3.570312 108.367188 -9.503906 129.65625 -24.296875 148.625 C -38.859375 167.34375 -57.941406 178.164062 -81.546875 181.09375 C -104.390625 183.925781 -125.378906 178.332031 -144.515625 164.3125 C -163.679688 150.050781 -174.664062 131.625 -177.46875 109.03125 Z M -148.84375 114.171875 C -144.144531 127.703125 -135.757812 138.390625 -123.6875 146.234375 C -111.65625 153.816406 -98.691406 156.742188 -84.796875 155.015625 C -63.429688 152.359375 -47.84375 140.710938 -38.03125 120.078125 C -35.050781 113.660156 -33.25 106.882812 -32.625 99.75 Z M -148.84375 114.171875 "/></g></g></g><path stroke-linecap="butt" transform="matrix(-0.1057, -1.065154, 1.065154, -0.1057, 268.718101, 317.682987)" fill="none" stroke-linejoin="miter" d="M 0.000546586 2.50177 L 194.775327 2.499689 " stroke="#0b1220" stroke-width="5" stroke-opacity="1" stroke-miterlimit="4"/><path stroke-linecap="butt" transform="matrix(-0.1057, -1.065154, 1.065154, -0.1057, 127.204815, 275.553966)" fill="none" stroke-linejoin="miter" d="M 0.000655483 2.499584 L 194.775076 2.501135 " stroke="#0b1220" stroke-width="5" stroke-opacity="1" stroke-miterlimit="4"/></svg>