<svg xmlns="http://www.w3.org/2000/svg" xmlns:xlink="http://www.w3.org/1999/xlink" width="200" zoomAndPan="magnify" viewBox="0 0 150 37.5" height="50" preserveAspectRatio="xMidYMid meet" version="1.0"><path fill="#ffffff" d="M 62.082031 25.917969 C 61.164062 25.917969 60.308594 25.753906 59.515625 25.429688 C 58.722656 25.105469 58.03125 24.636719 57.441406 24.027344 C 56.855469 23.421875 56.390625 22.679688 56.050781 21.804688 C 55.714844 20.929688 55.546875 19.933594 55.546875 18.8125 C 55.546875 17.695312 55.71875 16.691406 56.066406 15.804688 C 56.410156 14.917969 56.871094 14.164062 57.441406 13.550781 C 58.011719 12.9375 58.660156 12.464844 59.394531 12.136719 C 60.125 11.8125 60.878906 11.648438 61.667969 11.648438 C 62.523438 11.648438 63.292969 11.796875 63.976562 12.09375 C 64.660156 12.390625 65.230469 12.820312 65.6875 13.382812 C 66.144531 13.945312 66.496094 14.617188 66.742188 15.398438 C 66.984375 16.183594 67.105469 17.058594 67.105469 18.023438 C 67.105469 18.269531 67.101562 18.507812 67.089844 18.738281 C 67.082031 18.972656 67.054688 19.175781 67.019531 19.34375 L 57.820312 19.34375 C 57.914062 20.800781 58.367188 21.953125 59.179688 22.804688 C 59.996094 23.648438 61.054688 24.074219 62.367188 24.074219 C 63.019531 24.074219 63.621094 23.976562 64.175781 23.78125 C 64.722656 23.582031 65.253906 23.324219 65.761719 23.007812 L 66.574219 24.519531 C 65.972656 24.894531 65.308594 25.222656 64.578125 25.503906 C 63.847656 25.78125 63.019531 25.917969 62.082031 25.917969 Z M 57.792969 17.6875 L 65.089844 17.6875 C 65.089844 16.308594 64.792969 15.257812 64.203125 14.542969 C 63.613281 13.824219 62.785156 13.464844 61.71875 13.464844 C 61.234375 13.464844 60.769531 13.558594 60.328125 13.75 C 59.890625 13.933594 59.492188 14.207031 59.136719 14.574219 C 58.785156 14.933594 58.492188 15.375 58.257812 15.902344 C 58.027344 16.421875 57.867188 17.019531 57.792969 17.6875 Z M 57.792969 17.6875 " fill-opacity="1" fill-rule="nonzero"/><path fill="#ffffff" d="M 74.476562 25.917969 C 73.75 25.917969 73.136719 25.804688 72.640625 25.582031 C 72.148438 25.359375 71.746094 25.054688 71.433594 24.664062 C 71.128906 24.269531 70.90625 23.792969 70.777344 23.234375 C 70.644531 22.675781 70.578125 22.058594 70.578125 21.386719 L 70.578125 13.859375 L 68.5625 13.859375 L 68.5625 12.121094 L 70.695312 11.984375 L 70.972656 8.175781 L 72.910156 8.175781 L 72.910156 11.984375 L 76.582031 11.984375 L 76.582031 13.859375 L 72.910156 13.859375 L 72.910156 21.410156 C 72.910156 22.253906 73.066406 22.902344 73.371094 23.359375 C 73.679688 23.816406 74.222656 24.042969 75.007812 24.042969 C 75.253906 24.042969 75.515625 24.007812 75.792969 23.933594 C 76.074219 23.859375 76.328125 23.773438 76.550781 23.679688 L 77.003906 25.414062 C 76.628906 25.546875 76.222656 25.664062 75.785156 25.765625 C 75.347656 25.867188 74.910156 25.917969 74.476562 25.917969 Z M 74.476562 25.917969 " fill-opacity="1" fill-rule="nonzero"/><path fill="#ffffff" d="M 84.796875 25.917969 C 83.878906 25.917969 83.023438 25.753906 82.230469 25.429688 C 81.433594 25.105469 80.742188 24.636719 80.152344 24.027344 C 79.570312 23.421875 79.105469 22.679688 78.765625 21.804688 C 78.429688 20.929688 78.261719 19.933594 78.261719 18.8125 C 78.261719 17.695312 78.433594 16.691406 78.78125 15.804688 C 79.125 14.917969 79.585938 14.164062 80.152344 13.550781 C 80.722656 12.9375 81.375 12.464844 82.105469 12.136719 C 82.835938 11.8125 83.59375 11.648438 84.378906 11.648438 C 85.238281 11.648438 86.007812 11.796875 86.691406 12.09375 C 87.371094 12.390625 87.941406 12.820312 88.402344 13.382812 C 88.859375 13.945312 89.207031 14.617188 89.453125 15.398438 C 89.695312 16.183594 89.820312 17.058594 89.820312 18.023438 C 89.820312 18.269531 89.8125 18.507812 89.804688 18.738281 C 89.792969 18.972656 89.769531 19.175781 89.730469 19.34375 L 80.535156 19.34375 C 80.625 20.800781 81.078125 21.953125 81.894531 22.804688 C 82.707031 23.648438 83.769531 24.074219 85.082031 24.074219 C 85.734375 24.074219 86.335938 23.976562 86.886719 23.78125 C 87.4375 23.582031 87.964844 23.324219 88.472656 23.007812 L 89.285156 24.519531 C 88.6875 24.894531 88.019531 25.222656 87.289062 25.503906 C 86.5625 25.78125 85.734375 25.917969 84.796875 25.917969 Z M 80.503906 17.6875 L 87.800781 17.6875 C 87.800781 16.308594 87.503906 15.257812 86.917969 14.542969 C 86.328125 13.824219 85.5 13.464844 84.429688 13.464844 C 83.949219 13.464844 83.484375 13.558594 83.042969 13.75 C 82.601562 13.933594 82.203125 14.207031 81.851562 14.574219 C 81.5 14.933594 81.207031 15.375 80.972656 15.902344 C 80.738281 16.421875 80.582031 17.019531 80.503906 17.6875 Z M 80.503906 17.6875 " fill-opacity="1" fill-rule="nonzero"/><path fill="#ffffff" d="M 97.835938 25.917969 C 96.113281 25.917969 94.746094 25.304688 93.726562 24.074219 C 92.707031 22.84375 92.199219 21.089844 92.199219 18.8125 C 92.199219 17.710938 92.359375 16.714844 92.6875 15.828125 C 93.019531 14.945312 93.457031 14.195312 93.996094 13.582031 C 94.539062 12.964844 95.164062 12.488281 95.875 12.152344 C 96.585938 11.816406 97.335938 11.648438 98.121094 11.648438 C 98.90625 11.648438 99.585938 11.789062 100.167969 12.070312 C 100.746094 12.347656 101.332031 12.726562 101.929688 13.210938 L 101.820312 10.890625 L 101.820312 5.65625 L 104.144531 5.65625 L 104.144531 25.582031 L 102.242188 25.582031 L 102.046875 23.984375 L 101.957031 23.984375 C 101.417969 24.511719 100.796875 24.964844 100.09375 25.351562 C 99.390625 25.730469 98.640625 25.917969 97.835938 25.917969 Z M 98.339844 23.984375 C 98.976562 23.984375 99.578125 23.832031 100.136719 23.527344 C 100.699219 23.21875 101.257812 22.75 101.820312 22.109375 L 101.820312 15.003906 C 101.238281 14.484375 100.679688 14.117188 100.144531 13.902344 C 99.613281 13.683594 99.066406 13.574219 98.507812 13.574219 C 97.964844 13.574219 97.457031 13.703125 96.980469 13.953125 C 96.507812 14.207031 96.089844 14.5625 95.738281 15.019531 C 95.378906 15.476562 95.097656 16.023438 94.890625 16.660156 C 94.683594 17.292969 94.582031 18 94.582031 18.785156 C 94.582031 20.421875 94.90625 21.699219 95.5625 22.613281 C 96.21875 23.527344 97.144531 23.984375 98.339844 23.984375 Z M 98.339844 23.984375 " fill-opacity="1" fill-rule="nonzero"/><path fill="#ffffff" d="M 111.882812 25.917969 C 110.742188 25.917969 109.792969 25.582031 109.035156 24.910156 C 108.277344 24.242188 107.898438 23.289062 107.898438 22.058594 C 107.898438 20.566406 108.5625 19.421875 109.886719 18.628906 C 111.21875 17.839844 113.34375 17.285156 116.265625 16.964844 C 116.265625 16.535156 116.21875 16.113281 116.132812 15.703125 C 116.046875 15.296875 115.90625 14.933594 115.699219 14.617188 C 115.496094 14.296875 115.210938 14.039062 114.84375 13.84375 C 114.480469 13.652344 114.015625 13.550781 113.457031 13.550781 C 112.671875 13.550781 111.933594 13.703125 111.242188 13.996094 C 110.546875 14.292969 109.933594 14.628906 109.390625 15.003906 L 108.492188 13.40625 C 109.125 12.996094 109.898438 12.605469 110.816406 12.222656 C 111.734375 11.839844 112.742188 11.648438 113.851562 11.648438 C 115.511719 11.648438 116.71875 12.15625 117.460938 13.171875 C 118.210938 14.191406 118.589844 15.546875 118.589844 17.242188 L 118.589844 25.582031 L 116.679688 25.582031 L 116.484375 23.964844 L 116.402344 23.964844 C 115.75 24.503906 115.046875 24.964844 114.296875 25.351562 C 113.550781 25.730469 112.746094 25.917969 111.882812 25.917969 Z M 112.558594 24.074219 C 113.214844 24.074219 113.832031 23.917969 114.40625 23.613281 C 114.984375 23.304688 115.605469 22.851562 116.265625 22.257812 L 116.265625 18.476562 C 115.125 18.621094 114.160156 18.800781 113.382812 19.007812 C 112.609375 19.214844 111.980469 19.457031 111.503906 19.738281 C 111.03125 20.015625 110.6875 20.335938 110.464844 20.703125 C 110.25 21.0625 110.144531 21.460938 110.144531 21.890625 C 110.144531 22.675781 110.378906 23.234375 110.847656 23.570312 C 111.3125 23.90625 111.882812 24.074219 112.558594 24.074219 Z M 112.558594 24.074219 " fill-opacity="1" fill-rule="nonzero"/><path fill="#ffffff" d="M 126.773438 25.917969 C 126.046875 25.917969 125.433594 25.804688 124.9375 25.582031 C 124.445312 25.359375 124.042969 25.054688 123.730469 24.664062 C 123.425781 24.269531 123.203125 23.792969 123.074219 23.234375 C 122.941406 22.675781 122.875 22.058594 122.875 21.386719 L 122.875 13.859375 L 120.859375 13.859375 L 120.859375 12.121094 L 122.992188 11.984375 L 123.269531 8.175781 L 125.207031 8.175781 L 125.207031 11.984375 L 128.878906 11.984375 L 128.878906 13.859375 L 125.207031 13.859375 L 125.207031 21.410156 C 125.207031 22.253906 125.363281 22.902344 125.667969 23.359375 C 125.976562 23.816406 126.519531 24.042969 127.304688 24.042969 C 127.550781 24.042969 127.8125 24.007812 128.089844 23.933594 C 128.371094 23.859375 128.625 23.773438 128.847656 23.679688 L 129.300781 25.414062 C 128.925781 25.546875 128.519531 25.664062 128.082031 25.765625 C 127.640625 25.867188 127.207031 25.917969 126.773438 25.917969 Z M 126.773438 25.917969 " fill-opacity="1" fill-rule="nonzero"/><path fill="#ffffff" d="M 134.515625 25.917969 C 133.375 25.917969 132.421875 25.582031 131.664062 24.910156 C 130.90625 24.242188 130.527344 23.289062 130.527344 22.058594 C 130.527344 20.566406 131.191406 19.421875 132.519531 18.628906 C 133.847656 17.839844 135.972656 17.285156 138.894531 16.964844 C 138.894531 16.535156 138.847656 16.113281 138.761719 15.703125 C 138.675781 15.296875 138.535156 14.933594 138.328125 14.617188 C 138.125 14.296875 137.839844 14.039062 137.476562 13.84375 C 137.109375 13.652344 136.644531 13.550781 136.085938 13.550781 C 135.300781 13.550781 134.5625 13.703125 133.871094 13.996094 C 133.175781 14.292969 132.5625 14.628906 132.019531 15.003906 L 131.121094 13.40625 C 131.753906 12.996094 132.527344 12.605469 133.445312 12.222656 C 134.363281 11.839844 135.371094 11.648438 136.480469 11.648438 C 138.140625 11.648438 139.347656 12.15625 140.09375 13.171875 C 140.839844 14.191406 141.21875 15.546875 141.21875 17.242188 L 141.21875 25.582031 L 139.308594 25.582031 L 139.113281 23.964844 L 139.03125 23.964844 C 138.378906 24.503906 137.675781 24.964844 136.925781 25.351562 C 136.179688 25.730469 135.375 25.917969 134.515625 25.917969 Z M 135.1875 24.074219 C 135.84375 24.074219 136.460938 23.917969 137.035156 23.613281 C 137.617188 23.304688 138.234375 22.851562 138.894531 22.257812 L 138.894531 18.476562 C 137.753906 18.621094 136.792969 18.800781 136.011719 19.007812 C 135.238281 19.214844 134.609375 19.457031 134.132812 19.738281 C 133.660156 20.015625 133.316406 20.335938 133.09375 20.703125 C 132.878906 21.0625 132.773438 21.460938 132.773438 21.890625 C 132.773438 22.675781 133.007812 23.234375 133.476562 23.570312 C 133.945312 23.90625 134.515625 24.074219 135.1875 24.074219 Z M 135.1875 24.074219 " fill-opacity="1" fill-rule="nonzero"/><path fill="#ffffff" d="M 28.488281 14.5625 L 28.65625 16.1875 L 11.613281 17.945312 C 12.078125 19.582031 13.027344 20.855469 14.457031 21.777344 C 15.921875 22.726562 17.472656 23.113281 19.117188 22.945312 C 20.234375 22.828125 21.28125 22.453125 22.25 21.820312 C 23.195312 21.222656 23.960938 20.433594 24.546875 19.457031 L 28.0625 19.089844 C 27.433594 21.023438 26.351562 22.597656 24.8125 23.820312 C 23.25 25.078125 21.621094 25.796875 19.917969 25.972656 C 18.1875 26.152344 16.691406 26.035156 15.429688 25.628906 C 14.144531 25.230469 13 24.628906 11.996094 23.820312 C 9.804688 22.089844 8.566406 19.816406 8.273438 17.003906 C 7.984375 14.21875 8.730469 11.726562 10.511719 9.527344 C 12.28125 7.367188 14.558594 6.144531 17.347656 5.855469 C 20.050781 5.578125 22.511719 6.285156 24.730469 7.972656 C 26.957031 9.699219 28.210938 11.894531 28.488281 14.5625 Z M 25.125 13.890625 C 24.601562 12.285156 23.640625 11.007812 22.238281 10.058594 C 20.832031 9.136719 19.308594 8.757812 17.660156 8.929688 C 15.140625 9.1875 13.277344 10.519531 12.066406 12.925781 C 11.703125 13.671875 11.476562 14.464844 11.386719 15.304688 Z M 25.125 13.890625 " fill-opacity="1" fill-rule="nonzero"/><path fill="#ffffff" d="M 24.777344 20.910156 L 24.574219 19.261719 L 41.863281 17.121094 C 41.355469 15.460938 40.367188 14.183594 38.894531 13.277344 C 37.386719 12.347656 35.796875 11.988281 34.136719 12.199219 C 33.003906 12.332031 31.949219 12.734375 30.960938 13.402344 C 30.015625 14.027344 29.257812 14.847656 28.6875 15.851562 L 25.113281 16.296875 C 25.714844 14.324219 26.785156 12.699219 28.324219 11.425781 C 29.882812 10.109375 31.523438 9.347656 33.25 9.132812 C 35.011719 8.914062 36.53125 8.996094 37.820312 9.382812 C 39.136719 9.765625 40.3125 10.359375 41.34375 11.160156 C 43.621094 12.871094 44.933594 15.15625 45.285156 18.011719 C 45.636719 20.832031 44.925781 23.382812 43.148438 25.660156 C 41.40625 27.890625 39.121094 29.183594 36.292969 29.539062 C 33.546875 29.875 31.027344 29.207031 28.730469 27.535156 C 26.4375 25.828125 25.117188 23.617188 24.777344 20.910156 Z M 28.214844 21.527344 C 28.78125 23.148438 29.789062 24.425781 31.238281 25.367188 C 32.683594 26.269531 34.238281 26.621094 35.90625 26.417969 C 38.464844 26.097656 40.332031 24.703125 41.503906 22.238281 C 41.859375 21.46875 42.078125 20.65625 42.15625 19.800781 Z M 28.214844 21.527344 " fill-opacity="1" fill-rule="nonzero"/><path stroke-linecap="butt" transform="matrix(-0.0126776, -0.127491, 0.127754, -0.0126515, 36.398902, 32.82838)" fill="none" stroke-linejoin="miter" d="M -0.0013124 2.503488 L 194.773265 2.507576 " stroke="#0b1220" stroke-width="5" stroke-opacity="1" stroke-miterlimit="4"/><path stroke-linecap="butt" transform="matrix(-0.0126776, -0.127491, 0.127754, -0.0126515, 19.42585, 27.785855)" fill="none" stroke-linejoin="miter" d="M 0.00182425 2.506898 L 194.776402 2.510986 " stroke="#0b1220" stroke-width="5" stroke-opacity="1" stroke-miterlimit="4"/></svg>