<svg xmlns="http://www.w3.org/2000/svg" xmlns:xlink="http://www.w3.org/1999/xlink" width="500" zoomAndPan="magnify" viewBox="0 0 375 374.999991" height="500" preserveAspectRatio="xMidYMid meet" version="1.0"><defs><g/></defs><rect x="-37.5" width="450" fill="#ffffff" y="-37.499999" height="449.999989" fill-opacity="1"/><rect x="-37.5" width="450" fill="#ffffff" y="-37.499999" height="449.999989" fill-opacity="1"/><g fill="#0b1220" fill-opacity="1"><g transform="translate(147.172845, 208.502917)"><g><path d="M 16.734375 0.71875 C 14.773438 0.71875 12.945312 0.367188 11.25 -0.328125 C 9.550781 -1.023438 8.070312 -2.023438 6.8125 -3.328125 C 5.550781 -4.628906 4.5625 -6.21875 3.84375 -8.09375 C 3.125 -9.976562 2.765625 -12.117188 2.765625 -14.515625 C 2.765625 -16.921875 3.132812 -19.070312 3.875 -20.96875 C 4.613281 -22.863281 5.59375 -24.472656 6.8125 -25.796875 C 8.03125 -27.117188 9.414062 -28.128906 10.96875 -28.828125 C 12.53125 -29.523438 14.15625 -29.875 15.84375 -29.875 C 17.675781 -29.875 19.320312 -29.550781 20.78125 -28.90625 C 22.25 -28.269531 23.472656 -27.351562 24.453125 -26.15625 C 25.429688 -24.957031 26.179688 -23.515625 26.703125 -21.828125 C 27.222656 -20.148438 27.484375 -18.273438 27.484375 -16.203125 C 27.484375 -15.679688 27.472656 -15.171875 27.453125 -14.671875 C 27.429688 -14.171875 27.378906 -13.738281 27.296875 -13.375 L 7.625 -13.375 C 7.820312 -10.257812 8.789062 -7.789062 10.53125 -5.96875 C 12.269531 -4.144531 14.539062 -3.234375 17.34375 -3.234375 C 18.738281 -3.234375 20.023438 -3.441406 21.203125 -3.859375 C 22.390625 -4.285156 23.519531 -4.835938 24.59375 -5.515625 L 26.34375 -2.28125 C 25.0625 -1.476562 23.640625 -0.773438 22.078125 -0.171875 C 20.515625 0.421875 18.734375 0.71875 16.734375 0.71875 Z M 7.5625 -16.921875 L 23.15625 -16.921875 C 23.15625 -19.878906 22.523438 -22.128906 21.265625 -23.671875 C 20.003906 -25.210938 18.234375 -25.984375 15.953125 -25.984375 C 14.921875 -25.984375 13.929688 -25.78125 12.984375 -25.375 C 12.046875 -24.976562 11.195312 -24.390625 10.4375 -23.609375 C 9.675781 -22.828125 9.046875 -21.875 8.546875 -20.75 C 8.046875 -19.632812 7.71875 -18.359375 7.5625 -16.921875 Z M 7.5625 -16.921875 "/></g></g></g><g fill="#0b1220" fill-opacity="1"><g transform="translate(176.332813, 208.502917)"><g><path d="M 14.09375 0.71875 C 12.539062 0.71875 11.234375 0.476562 10.171875 0 C 9.109375 -0.476562 8.242188 -1.132812 7.578125 -1.96875 C 6.921875 -2.8125 6.453125 -3.832031 6.171875 -5.03125 C 5.898438 -6.238281 5.765625 -7.5625 5.765625 -9 L 5.765625 -25.140625 L 1.4375 -25.140625 L 1.4375 -28.859375 L 6 -29.15625 L 6.59375 -37.3125 L 10.734375 -37.3125 L 10.734375 -29.15625 L 18.59375 -29.15625 L 18.59375 -25.140625 L 10.734375 -25.140625 L 10.734375 -8.9375 C 10.734375 -7.132812 11.0625 -5.742188 11.71875 -4.765625 C 12.382812 -3.785156 13.554688 -3.296875 15.234375 -3.296875 C 15.753906 -3.296875 16.3125 -3.375 16.90625 -3.53125 C 17.507812 -3.695312 18.054688 -3.878906 18.546875 -4.078125 L 19.5 -0.359375 C 18.695312 -0.078125 17.828125 0.171875 16.890625 0.390625 C 15.953125 0.609375 15.019531 0.71875 14.09375 0.71875 Z M 14.09375 0.71875 "/></g></g></g><g fill="#0b1220" fill-opacity="1"><g transform="translate(195.772799, 208.502917)"><g><path d="M 16.734375 0.71875 C 14.773438 0.71875 12.945312 0.367188 11.25 -0.328125 C 9.550781 -1.023438 8.070312 -2.023438 6.8125 -3.328125 C 5.550781 -4.628906 4.5625 -6.21875 3.84375 -8.09375 C 3.125 -9.976562 2.765625 -12.117188 2.765625 -14.515625 C 2.765625 -16.921875 3.132812 -19.070312 3.875 -20.96875 C 4.613281 -22.863281 5.59375 -24.472656 6.8125 -25.796875 C 8.03125 -27.117188 9.414062 -28.128906 10.96875 -28.828125 C 12.53125 -29.523438 14.15625 -29.875 15.84375 -29.875 C 17.675781 -29.875 19.320312 -29.550781 20.78125 -28.90625 C 22.25 -28.269531 23.472656 -27.351562 24.453125 -26.15625 C 25.429688 -24.957031 26.179688 -23.515625 26.703125 -21.828125 C 27.222656 -20.148438 27.484375 -18.273438 27.484375 -16.203125 C 27.484375 -15.679688 27.472656 -15.171875 27.453125 -14.671875 C 27.429688 -14.171875 27.378906 -13.738281 27.296875 -13.375 L 7.625 -13.375 C 7.820312 -10.257812 8.789062 -7.789062 10.53125 -5.96875 C 12.269531 -4.144531 14.539062 -3.234375 17.34375 -3.234375 C 18.738281 -3.234375 20.023438 -3.441406 21.203125 -3.859375 C 22.390625 -4.285156 23.519531 -4.835938 24.59375 -5.515625 L 26.34375 -2.28125 C 25.0625 -1.476562 23.640625 -0.773438 22.078125 -0.171875 C 20.515625 0.421875 18.734375 0.71875 16.734375 0.71875 Z M 7.5625 -16.921875 L 23.15625 -16.921875 C 23.15625 -19.878906 22.523438 -22.128906 21.265625 -23.671875 C 20.003906 -25.210938 18.234375 -25.984375 15.953125 -25.984375 C 14.921875 -25.984375 13.929688 -25.78125 12.984375 -25.375 C 12.046875 -24.976562 11.195312 -24.390625 10.4375 -23.609375 C 9.675781 -22.828125 9.046875 -21.875 8.546875 -20.75 C 8.046875 -19.632812 7.71875 -18.359375 7.5625 -16.921875 Z M 7.5625 -16.921875 "/></g></g></g><g fill="#0b1220" fill-opacity="1"><g transform="translate(225.532768, 208.502917)"><g><path d="M 14.875 0.71875 C 11.195312 0.71875 8.265625 -0.597656 6.078125 -3.234375 C 3.898438 -5.878906 2.8125 -9.640625 2.8125 -14.515625 C 2.8125 -16.878906 3.160156 -19.007812 3.859375 -20.90625 C 4.566406 -22.8125 5.5 -24.421875 6.65625 -25.734375 C 7.820312 -27.054688 9.160156 -28.078125 10.671875 -28.796875 C 12.191406 -29.515625 13.796875 -29.875 15.484375 -29.875 C 17.160156 -29.875 18.617188 -29.570312 19.859375 -28.96875 C 21.097656 -28.375 22.359375 -27.554688 23.640625 -26.515625 L 23.40625 -31.5 L 23.40625 -42.71875 L 28.375 -42.71875 L 28.375 0 L 24.296875 0 L 23.875 -3.421875 L 23.703125 -3.421875 C 22.535156 -2.296875 21.203125 -1.320312 19.703125 -0.5 C 18.203125 0.3125 16.59375 0.71875 14.875 0.71875 Z M 15.953125 -3.421875 C 17.316406 -3.421875 18.597656 -3.75 19.796875 -4.40625 C 20.992188 -5.070312 22.195312 -6.082031 23.40625 -7.4375 L 23.40625 -22.6875 C 22.164062 -23.800781 20.972656 -24.585938 19.828125 -25.046875 C 18.691406 -25.503906 17.519531 -25.734375 16.3125 -25.734375 C 15.15625 -25.734375 14.066406 -25.460938 13.046875 -24.921875 C 12.023438 -24.390625 11.132812 -23.632812 10.375 -22.65625 C 9.613281 -21.675781 9.015625 -20.503906 8.578125 -19.140625 C 8.140625 -17.773438 7.921875 -16.253906 7.921875 -14.578125 C 7.921875 -11.054688 8.617188 -8.316406 10.015625 -6.359375 C 11.421875 -4.398438 13.398438 -3.421875 15.953125 -3.421875 Z M 15.953125 -3.421875 "/></g></g></g><g fill="#0b1220" fill-opacity="1"><g transform="translate(258.832738, 208.502917)"><g><path d="M 11.640625 0.71875 C 9.203125 0.71875 7.171875 0 5.546875 -1.4375 C 3.929688 -2.875 3.125 -4.914062 3.125 -7.5625 C 3.125 -10.757812 4.539062 -13.207031 7.375 -14.90625 C 10.21875 -16.601562 14.757812 -17.796875 21 -18.484375 C 21 -19.398438 20.90625 -20.296875 20.71875 -21.171875 C 20.539062 -22.054688 20.234375 -22.835938 19.796875 -23.515625 C 19.359375 -24.203125 18.75 -24.753906 17.96875 -25.171875 C 17.1875 -25.585938 16.195312 -25.796875 15 -25.796875 C 13.320312 -25.796875 11.742188 -25.472656 10.265625 -24.828125 C 8.785156 -24.191406 7.460938 -23.476562 6.296875 -22.6875 L 4.375 -26.09375 C 5.738281 -26.976562 7.398438 -27.828125 9.359375 -28.640625 C 11.316406 -29.460938 13.476562 -29.875 15.84375 -29.875 C 19.40625 -29.875 21.984375 -28.785156 23.578125 -26.609375 C 25.179688 -24.429688 25.984375 -21.519531 25.984375 -17.875 L 25.984375 0 L 21.90625 0 L 21.484375 -3.484375 L 21.296875 -3.484375 C 19.898438 -2.316406 18.398438 -1.320312 16.796875 -0.5 C 15.203125 0.3125 13.484375 0.71875 11.640625 0.71875 Z M 13.078125 -3.234375 C 14.484375 -3.234375 15.804688 -3.5625 17.046875 -4.21875 C 18.285156 -4.882812 19.601562 -5.859375 21 -7.140625 L 21 -15.234375 C 18.5625 -14.921875 16.507812 -14.539062 14.84375 -14.09375 C 13.1875 -13.65625 11.847656 -13.132812 10.828125 -12.53125 C 9.804688 -11.9375 9.066406 -11.25 8.609375 -10.46875 C 8.148438 -9.6875 7.921875 -8.835938 7.921875 -7.921875 C 7.921875 -6.242188 8.421875 -5.039062 9.421875 -4.3125 C 10.421875 -3.59375 11.640625 -3.234375 13.078125 -3.234375 Z M 13.078125 -3.234375 "/></g></g></g><g fill="#0b1220" fill-opacity="1"><g transform="translate(288.232711, 208.502917)"><g><path d="M 14.09375 0.71875 C 12.539062 0.71875 11.234375 0.476562 10.171875 0 C 9.109375 -0.476562 8.242188 -1.132812 7.578125 -1.96875 C 6.921875 -2.8125 6.453125 -3.832031 6.171875 -5.03125 C 5.898438 -6.238281 5.765625 -7.5625 5.765625 -9 L 5.765625 -25.140625 L 1.4375 -25.140625 L 1.4375 -28.859375 L 6 -29.15625 L 6.59375 -37.3125 L 10.734375 -37.3125 L 10.734375 -29.15625 L 18.59375 -29.15625 L 18.59375 -25.140625 L 10.734375 -25.140625 L 10.734375 -8.9375 C 10.734375 -7.132812 11.0625 -5.742188 11.71875 -4.765625 C 12.382812 -3.785156 13.554688 -3.296875 15.234375 -3.296875 C 15.753906 -3.296875 16.3125 -3.375 16.90625 -3.53125 C 17.507812 -3.695312 18.054688 -3.878906 18.546875 -4.078125 L 19.5 -0.359375 C 18.695312 -0.078125 17.828125 0.171875 16.890625 0.390625 C 15.953125 0.609375 15.019531 0.71875 14.09375 0.71875 Z M 14.09375 0.71875 "/></g></g></g><g fill="#0b1220" fill-opacity="1"><g transform="translate(307.252698, 208.502917)"><g><path d="M 11.640625 0.71875 C 9.203125 0.71875 7.171875 0 5.546875 -1.4375 C 3.929688 -2.875 3.125 -4.914062 3.125 -7.5625 C 3.125 -10.757812 4.539062 -13.207031 7.375 -14.90625 C 10.21875 -16.601562 14.757812 -17.796875 21 -18.484375 C 21 -19.398438 20.90625 -20.296875 20.71875 -21.171875 C 20.539062 -22.054688 20.234375 -22.835938 19.796875 -23.515625 C 19.359375 -24.203125 18.75 -24.753906 17.96875 -25.171875 C 17.1875 -25.585938 16.195312 -25.796875 15 -25.796875 C 13.320312 -25.796875 11.742188 -25.472656 10.265625 -24.828125 C 8.785156 -24.191406 7.460938 -23.476562 6.296875 -22.6875 L 4.375 -26.09375 C 5.738281 -26.976562 7.398438 -27.828125 9.359375 -28.640625 C 11.316406 -29.460938 13.476562 -29.875 15.84375 -29.875 C 19.40625 -29.875 21.984375 -28.785156 23.578125 -26.609375 C 25.179688 -24.429688 25.984375 -21.519531 25.984375 -17.875 L 25.984375 0 L 21.90625 0 L 21.484375 -3.484375 L 21.296875 -3.484375 C 19.898438 -2.316406 18.398438 -1.320312 16.796875 -0.5 C 15.203125 0.3125 13.484375 0.71875 11.640625 0.71875 Z M 13.078125 -3.234375 C 14.484375 -3.234375 15.804688 -3.5625 17.046875 -4.21875 C 18.285156 -4.882812 19.601562 -5.859375 21 -7.140625 L 21 -15.234375 C 18.5625 -14.921875 16.507812 -14.539062 14.84375 -14.09375 C 13.1875 -13.65625 11.847656 -13.132812 10.828125 -12.53125 C 9.804688 -11.9375 9.066406 -11.25 8.609375 -10.46875 C 8.148438 -9.6875 7.921875 -8.835938 7.921875 -7.921875 C 7.921875 -6.242188 8.421875 -5.039062 9.421875 -4.3125 C 10.421875 -3.59375 11.640625 -3.234375 13.078125 -3.234375 Z M 13.078125 -3.234375 "/></g></g></g><g fill="#0b1220" fill-opacity="1"><g transform="translate(46.700557, 211.690864)"><g><path d="M 45.359375 -26.59375 L 45.71875 -23.109375 L 9.234375 -19.328125 C 10.234375 -15.828125 12.265625 -13.085938 15.328125 -11.109375 C 18.460938 -9.078125 21.785156 -8.242188 25.296875 -8.609375 C 27.691406 -8.859375 29.929688 -9.660156 32.015625 -11.015625 C 34.035156 -12.304688 35.671875 -14 36.921875 -16.09375 L 44.453125 -16.875 C 43.097656 -12.738281 40.773438 -9.359375 37.484375 -6.734375 C 34.148438 -4.035156 30.660156 -2.5 27.015625 -2.125 C 23.304688 -1.738281 20.109375 -1.984375 17.421875 -2.859375 C 14.660156 -3.710938 12.207031 -5.007812 10.0625 -6.75 C 5.363281 -10.457031 2.707031 -15.328125 2.09375 -21.359375 C 1.46875 -27.328125 3.066406 -32.664062 6.890625 -37.375 C 10.660156 -42.007812 15.53125 -44.632812 21.5 -45.25 C 27.28125 -45.851562 32.550781 -44.34375 37.3125 -40.71875 C 42.082031 -37.019531 44.765625 -32.3125 45.359375 -26.59375 Z M 38.140625 -28.046875 C 37.035156 -31.472656 34.976562 -34.210938 31.96875 -36.265625 C 28.96875 -38.234375 25.707031 -39.035156 22.1875 -38.671875 C 16.789062 -38.117188 12.800781 -35.257812 10.21875 -30.09375 C 9.4375 -28.5 8.941406 -26.800781 8.734375 -25 Z M 38.140625 -28.046875 "/></g></g></g><g fill="#0b1220" fill-opacity="1"><g transform="translate(129.723975, 171.189396)"><g><path d="M -45.546875 27.984375 L -45.984375 24.453125 L -8.984375 19.859375 C -10.078125 16.304688 -12.203125 13.554688 -15.359375 11.609375 C -18.578125 9.609375 -21.972656 8.832031 -25.546875 9.28125 C -27.960938 9.582031 -30.222656 10.441406 -32.328125 11.859375 C -34.347656 13.210938 -35.96875 14.972656 -37.1875 17.140625 L -44.84375 18.078125 C -43.5625 13.847656 -41.273438 10.367188 -37.984375 7.640625 C -34.640625 4.816406 -31.117188 3.175781 -27.421875 2.71875 C -23.660156 2.25 -20.40625 2.425781 -17.65625 3.25 C -14.832031 4.070312 -12.3125 5.347656 -10.09375 7.078125 C -5.226562 10.742188 -2.414062 15.640625 -1.65625 21.765625 C -0.90625 27.816406 -2.4375 33.28125 -6.25 38.15625 C -9.988281 42.957031 -14.882812 45.734375 -20.9375 46.484375 C -26.800781 47.210938 -32.179688 45.773438 -37.078125 42.171875 C -42.003906 38.515625 -44.828125 33.785156 -45.546875 27.984375 Z M -38.21875 29.296875 C -37 32.765625 -34.835938 35.507812 -31.734375 37.53125 C -28.648438 39.46875 -25.328125 40.21875 -21.765625 39.78125 C -16.273438 39.101562 -12.269531 36.117188 -9.75 30.828125 C -9 29.179688 -8.539062 27.4375 -8.375 25.59375 Z M -38.21875 29.296875 "/></g></g></g><path stroke-linecap="butt" transform="matrix(-0.0271264, -0.273357, 0.273357, -0.0271264, 108.953793, 224.037758)" fill="none" stroke-linejoin="miter" d="M 0.00448669 2.498735 L 194.775207 2.506686 " stroke="#ffffff" stroke-width="5" stroke-opacity="1" stroke-miterlimit="4"/><path stroke-linecap="butt" transform="matrix(-0.0271264, -0.273357, 0.273357, -0.0271264, 72.636343, 213.225924)" fill="none" stroke-linejoin="miter" d="M 0.00652507 2.502757 L 194.77865 2.496557 " stroke="#ffffff" stroke-width="5" stroke-opacity="1" stroke-miterlimit="4"/></svg>