<svg xmlns="http://www.w3.org/2000/svg" xmlns:xlink="http://www.w3.org/1999/xlink" width="433" zoomAndPan="magnify" viewBox="0 0 324.75 104.999996" height="140" preserveAspectRatio="xMidYMid meet" version="1.0"><defs><g/><clipPath id="9ca3cd4977"><path d="M 0 0.0390625 L 324.5 0.0390625 L 324.5 104.957031 L 0 104.957031 Z M 0 0.0390625 " clip-rule="nonzero"/></clipPath><clipPath id="857c183302"><path d="M 0 9.433594 L 320.753906 9.433594 L 320.753906 104.609375 L 0 104.609375 Z M 0 9.433594 " clip-rule="nonzero"/></clipPath></defs><g clip-path="url(#9ca3cd4977)"><path fill="#ffffff" d="M 0 0.0390625 L 324.5 0.0390625 L 324.5 104.960938 L 0 104.960938 Z M 0 0.0390625 " fill-opacity="1" fill-rule="nonzero"/></g><g fill="#0b1220" fill-opacity="1"><g transform="translate(118.178628, 72.704439)"><g><path d="M 16.734375 0.71875 C 14.773438 0.71875 12.941406 0.367188 11.234375 -0.328125 C 9.535156 -1.023438 8.054688 -2.023438 6.796875 -3.328125 C 5.546875 -4.628906 4.5625 -6.21875 3.84375 -8.09375 C 3.125 -9.96875 2.765625 -12.109375 2.765625 -14.515625 C 2.765625 -16.910156 3.128906 -19.054688 3.859375 -20.953125 C 4.597656 -22.847656 5.578125 -24.457031 6.796875 -25.78125 C 8.023438 -27.101562 9.414062 -28.113281 10.96875 -28.8125 C 12.53125 -29.507812 14.148438 -29.859375 15.828125 -29.859375 C 17.660156 -29.859375 19.304688 -29.535156 20.765625 -28.890625 C 22.234375 -28.253906 23.457031 -27.335938 24.4375 -26.140625 C 25.414062 -24.941406 26.160156 -23.503906 26.671875 -21.828125 C 27.191406 -20.148438 27.453125 -18.269531 27.453125 -16.1875 C 27.453125 -15.664062 27.441406 -15.15625 27.421875 -14.65625 C 27.410156 -14.15625 27.363281 -13.726562 27.28125 -13.375 L 7.609375 -13.375 C 7.804688 -10.25 8.773438 -7.773438 10.515625 -5.953125 C 12.253906 -4.140625 14.523438 -3.234375 17.328125 -3.234375 C 18.722656 -3.234375 20.007812 -3.441406 21.1875 -3.859375 C 22.375 -4.285156 23.503906 -4.835938 24.578125 -5.515625 L 26.3125 -2.28125 C 25.039062 -1.476562 23.625 -0.773438 22.0625 -0.171875 C 20.5 0.421875 18.722656 0.71875 16.734375 0.71875 Z M 7.546875 -16.90625 L 23.140625 -16.90625 C 23.140625 -19.863281 22.507812 -22.109375 21.25 -23.640625 C 19.988281 -25.179688 18.222656 -25.953125 15.953125 -25.953125 C 14.910156 -25.953125 13.921875 -25.753906 12.984375 -25.359375 C 12.046875 -24.960938 11.195312 -24.375 10.4375 -23.59375 C 9.675781 -22.8125 9.046875 -21.859375 8.546875 -20.734375 C 8.046875 -19.617188 7.710938 -18.34375 7.546875 -16.90625 Z M 7.546875 -16.90625 "/></g></g></g><g fill="#0b1220" fill-opacity="1"><g transform="translate(147.316165, 72.704439)"><g><path d="M 14.09375 0.71875 C 12.53125 0.71875 11.21875 0.476562 10.15625 0 C 9.101562 -0.476562 8.242188 -1.132812 7.578125 -1.96875 C 6.921875 -2.8125 6.453125 -3.832031 6.171875 -5.03125 C 5.890625 -6.226562 5.75 -7.550781 5.75 -9 L 5.75 -25.125 L 1.4375 -25.125 L 1.4375 -28.84375 L 6 -29.140625 L 6.59375 -37.296875 L 10.734375 -37.296875 L 10.734375 -29.140625 L 18.578125 -29.140625 L 18.578125 -25.125 L 10.734375 -25.125 L 10.734375 -8.9375 C 10.734375 -7.132812 11.0625 -5.742188 11.71875 -4.765625 C 12.375 -3.785156 13.546875 -3.296875 15.234375 -3.296875 C 15.742188 -3.296875 16.300781 -3.375 16.90625 -3.53125 C 17.507812 -3.695312 18.050781 -3.878906 18.53125 -4.078125 L 19.484375 -0.359375 C 18.679688 -0.078125 17.8125 0.171875 16.875 0.390625 C 15.9375 0.609375 15.007812 0.71875 14.09375 0.71875 Z M 14.09375 0.71875 "/></g></g></g><g fill="#0b1220" fill-opacity="1"><g transform="translate(166.741198, 72.704439)"><g><path d="M 16.734375 0.71875 C 14.773438 0.71875 12.941406 0.367188 11.234375 -0.328125 C 9.535156 -1.023438 8.054688 -2.023438 6.796875 -3.328125 C 5.546875 -4.628906 4.5625 -6.21875 3.84375 -8.09375 C 3.125 -9.96875 2.765625 -12.109375 2.765625 -14.515625 C 2.765625 -16.910156 3.128906 -19.054688 3.859375 -20.953125 C 4.597656 -22.847656 5.578125 -24.457031 6.796875 -25.78125 C 8.023438 -27.101562 9.414062 -28.113281 10.96875 -28.8125 C 12.53125 -29.507812 14.148438 -29.859375 15.828125 -29.859375 C 17.660156 -29.859375 19.304688 -29.535156 20.765625 -28.890625 C 22.234375 -28.253906 23.457031 -27.335938 24.4375 -26.140625 C 25.414062 -24.941406 26.160156 -23.503906 26.671875 -21.828125 C 27.191406 -20.148438 27.453125 -18.269531 27.453125 -16.1875 C 27.453125 -15.664062 27.441406 -15.15625 27.421875 -14.65625 C 27.410156 -14.15625 27.363281 -13.726562 27.28125 -13.375 L 7.609375 -13.375 C 7.804688 -10.25 8.773438 -7.773438 10.515625 -5.953125 C 12.253906 -4.140625 14.523438 -3.234375 17.328125 -3.234375 C 18.722656 -3.234375 20.007812 -3.441406 21.1875 -3.859375 C 22.375 -4.285156 23.503906 -4.835938 24.578125 -5.515625 L 26.3125 -2.28125 C 25.039062 -1.476562 23.625 -0.773438 22.0625 -0.171875 C 20.5 0.421875 18.722656 0.71875 16.734375 0.71875 Z M 7.546875 -16.90625 L 23.140625 -16.90625 C 23.140625 -19.863281 22.507812 -22.109375 21.25 -23.640625 C 19.988281 -25.179688 18.222656 -25.953125 15.953125 -25.953125 C 14.910156 -25.953125 13.921875 -25.753906 12.984375 -25.359375 C 12.046875 -24.960938 11.195312 -24.375 10.4375 -23.59375 C 9.675781 -22.8125 9.046875 -21.859375 8.546875 -20.734375 C 8.046875 -19.617188 7.710938 -18.34375 7.546875 -16.90625 Z M 7.546875 -16.90625 "/></g></g></g><g fill="#0b1220" fill-opacity="1"><g transform="translate(196.478276, 72.704439)"><g><path d="M 14.875 0.71875 C 11.195312 0.71875 8.265625 -0.597656 6.078125 -3.234375 C 3.898438 -5.867188 2.8125 -9.628906 2.8125 -14.515625 C 2.8125 -16.867188 3.160156 -18.992188 3.859375 -20.890625 C 4.566406 -22.785156 5.5 -24.394531 6.65625 -25.71875 C 7.8125 -27.039062 9.148438 -28.0625 10.671875 -28.78125 C 12.191406 -29.5 13.789062 -29.859375 15.46875 -29.859375 C 17.144531 -29.859375 18.601562 -29.554688 19.84375 -28.953125 C 21.082031 -28.359375 22.34375 -27.539062 23.625 -26.5 L 23.375 -31.46875 L 23.375 -42.6875 L 28.359375 -42.6875 L 28.359375 0 L 24.28125 0 L 23.859375 -3.421875 L 23.6875 -3.421875 C 22.519531 -2.296875 21.1875 -1.320312 19.6875 -0.5 C 18.195312 0.3125 16.59375 0.71875 14.875 0.71875 Z M 15.953125 -3.421875 C 17.304688 -3.421875 18.582031 -3.75 19.78125 -4.40625 C 20.976562 -5.0625 22.175781 -6.070312 23.375 -7.4375 L 23.375 -22.65625 C 22.132812 -23.78125 20.945312 -24.570312 19.8125 -25.03125 C 18.675781 -25.488281 17.507812 -25.71875 16.3125 -25.71875 C 15.144531 -25.71875 14.050781 -25.445312 13.03125 -24.90625 C 12.019531 -24.363281 11.132812 -23.601562 10.375 -22.625 C 9.613281 -21.644531 9.007812 -20.476562 8.5625 -19.125 C 8.125 -17.769531 7.90625 -16.25 7.90625 -14.5625 C 7.90625 -11.050781 8.601562 -8.316406 10 -6.359375 C 11.40625 -4.398438 13.390625 -3.421875 15.953125 -3.421875 Z M 15.953125 -3.421875 "/></g></g></g><g fill="#0b1220" fill-opacity="1"><g transform="translate(229.752631, 72.704439)"><g><path d="M 11.625 0.71875 C 9.1875 0.71875 7.160156 0 5.546875 -1.4375 C 3.929688 -2.875 3.125 -4.910156 3.125 -7.546875 C 3.125 -10.742188 4.539062 -13.191406 7.375 -14.890625 C 10.207031 -16.597656 14.742188 -17.789062 20.984375 -18.46875 C 20.984375 -19.382812 20.890625 -20.28125 20.703125 -21.15625 C 20.523438 -22.039062 20.21875 -22.820312 19.78125 -23.5 C 19.34375 -24.175781 18.734375 -24.722656 17.953125 -25.140625 C 17.171875 -25.566406 16.179688 -25.78125 14.984375 -25.78125 C 13.304688 -25.78125 11.726562 -25.457031 10.25 -24.8125 C 8.769531 -24.175781 7.453125 -23.457031 6.296875 -22.65625 L 4.375 -26.078125 C 5.738281 -26.960938 7.398438 -27.8125 9.359375 -28.625 C 11.316406 -29.445312 13.472656 -29.859375 15.828125 -29.859375 C 19.378906 -29.859375 21.953125 -28.769531 23.546875 -26.59375 C 25.148438 -24.414062 25.953125 -21.503906 25.953125 -17.859375 L 25.953125 0 L 21.890625 0 L 21.46875 -3.484375 L 21.28125 -3.484375 C 19.882812 -2.316406 18.382812 -1.320312 16.78125 -0.5 C 15.1875 0.3125 13.46875 0.71875 11.625 0.71875 Z M 13.0625 -3.234375 C 14.46875 -3.234375 15.789062 -3.5625 17.03125 -4.21875 C 18.269531 -4.882812 19.585938 -5.859375 20.984375 -7.140625 L 20.984375 -15.234375 C 18.546875 -14.910156 16.492188 -14.523438 14.828125 -14.078125 C 13.171875 -13.640625 11.832031 -13.117188 10.8125 -12.515625 C 9.800781 -11.921875 9.0625 -11.234375 8.59375 -10.453125 C 8.132812 -9.679688 7.90625 -8.832031 7.90625 -7.90625 C 7.90625 -6.226562 8.40625 -5.03125 9.40625 -4.3125 C 10.40625 -3.59375 11.625 -3.234375 13.0625 -3.234375 Z M 13.0625 -3.234375 "/></g></g></g><g fill="#0b1220" fill-opacity="1"><g transform="translate(259.129989, 72.704439)"><g><path d="M 14.09375 0.71875 C 12.53125 0.71875 11.21875 0.476562 10.15625 0 C 9.101562 -0.476562 8.242188 -1.132812 7.578125 -1.96875 C 6.921875 -2.8125 6.453125 -3.832031 6.171875 -5.03125 C 5.890625 -6.226562 5.75 -7.550781 5.75 -9 L 5.75 -25.125 L 1.4375 -25.125 L 1.4375 -28.84375 L 6 -29.140625 L 6.59375 -37.296875 L 10.734375 -37.296875 L 10.734375 -29.140625 L 18.578125 -29.140625 L 18.578125 -25.125 L 10.734375 -25.125 L 10.734375 -8.9375 C 10.734375 -7.132812 11.0625 -5.742188 11.71875 -4.765625 C 12.375 -3.785156 13.546875 -3.296875 15.234375 -3.296875 C 15.742188 -3.296875 16.300781 -3.375 16.90625 -3.53125 C 17.507812 -3.695312 18.050781 -3.878906 18.53125 -4.078125 L 19.484375 -0.359375 C 18.679688 -0.078125 17.8125 0.171875 16.875 0.390625 C 15.9375 0.609375 15.007812 0.71875 14.09375 0.71875 Z M 14.09375 0.71875 "/></g></g></g><g fill="#0b1220" fill-opacity="1"><g transform="translate(278.135347, 72.704439)"><g><path d="M 11.625 0.71875 C 9.1875 0.71875 7.160156 0 5.546875 -1.4375 C 3.929688 -2.875 3.125 -4.910156 3.125 -7.546875 C 3.125 -10.742188 4.539062 -13.191406 7.375 -14.890625 C 10.207031 -16.597656 14.742188 -17.789062 20.984375 -18.46875 C 20.984375 -19.382812 20.890625 -20.28125 20.703125 -21.15625 C 20.523438 -22.039062 20.21875 -22.820312 19.78125 -23.5 C 19.34375 -24.175781 18.734375 -24.722656 17.953125 -25.140625 C 17.171875 -25.566406 16.179688 -25.78125 14.984375 -25.78125 C 13.304688 -25.78125 11.726562 -25.457031 10.25 -24.8125 C 8.769531 -24.175781 7.453125 -23.457031 6.296875 -22.65625 L 4.375 -26.078125 C 5.738281 -26.960938 7.398438 -27.8125 9.359375 -28.625 C 11.316406 -29.445312 13.472656 -29.859375 15.828125 -29.859375 C 19.378906 -29.859375 21.953125 -28.769531 23.546875 -26.59375 C 25.148438 -24.414062 25.953125 -21.503906 25.953125 -17.859375 L 25.953125 0 L 21.890625 0 L 21.46875 -3.484375 L 21.28125 -3.484375 C 19.882812 -2.316406 18.382812 -1.320312 16.78125 -0.5 C 15.1875 0.3125 13.46875 0.71875 11.625 0.71875 Z M 13.0625 -3.234375 C 14.46875 -3.234375 15.789062 -3.5625 17.03125 -4.21875 C 18.269531 -4.882812 19.585938 -5.859375 20.984375 -7.140625 L 20.984375 -15.234375 C 18.546875 -14.910156 16.492188 -14.523438 14.828125 -14.078125 C 13.171875 -13.640625 11.832031 -13.117188 10.8125 -12.515625 C 9.800781 -11.921875 9.0625 -11.234375 8.59375 -10.453125 C 8.132812 -9.679688 7.90625 -8.832031 7.90625 -7.90625 C 7.90625 -6.226562 8.40625 -5.03125 9.40625 -4.3125 C 10.40625 -3.59375 11.625 -3.234375 13.0625 -3.234375 Z M 13.0625 -3.234375 "/></g></g></g><g clip-path="url(#857c183302)"><path fill="#ffffff" d="M -15.988281 -44.929688 L 320.859375 -44.929688 L 320.859375 162.179688 L -15.988281 162.179688 Z M -15.988281 -44.929688 " fill-opacity="1" fill-rule="nonzero"/></g><path fill="#0b1220" d="M 137.472656 74.625 C 135.570312 74.625 133.800781 74.285156 132.15625 73.609375 C 130.511719 72.9375 129.074219 71.964844 127.855469 70.699219 C 126.644531 69.4375 125.683594 67.898438 124.980469 66.078125 C 124.28125 64.257812 123.933594 62.191406 123.933594 59.863281 C 123.933594 57.539062 124.289062 55.460938 125.007812 53.617188 C 125.726562 51.769531 126.675781 50.207031 127.855469 48.933594 C 129.039062 47.652344 130.386719 46.671875 131.898438 45.996094 C 133.414062 45.320312 134.980469 44.980469 136.609375 44.980469 C 138.382812 44.980469 139.976562 45.289062 141.394531 45.902344 C 142.804688 46.519531 143.984375 47.414062 144.9375 48.585938 C 145.882812 49.75 146.609375 51.144531 147.117188 52.769531 C 147.621094 54.398438 147.875 56.21875 147.875 58.226562 C 147.875 58.734375 147.863281 59.226562 147.84375 59.710938 C 147.820312 60.195312 147.773438 60.617188 147.691406 60.96875 L 128.644531 60.96875 C 128.832031 63.992188 129.773438 66.386719 131.460938 68.152344 C 133.144531 69.914062 135.34375 70.792969 138.0625 70.792969 C 139.414062 70.792969 140.660156 70.589844 141.800781 70.183594 C 142.941406 69.773438 144.035156 69.238281 145.089844 68.578125 L 146.769531 71.714844 C 145.527344 72.496094 144.148438 73.179688 142.636719 73.761719 C 141.128906 74.339844 139.410156 74.625 137.472656 74.625 Z M 128.582031 57.527344 L 143.695312 57.527344 C 143.695312 54.660156 143.082031 52.480469 141.863281 50.996094 C 140.640625 49.503906 138.925781 48.753906 136.714844 48.753906 C 135.714844 48.753906 134.753906 48.949219 133.835938 49.34375 C 132.929688 49.730469 132.105469 50.300781 131.371094 51.058594 C 130.640625 51.808594 130.035156 52.722656 129.550781 53.816406 C 129.066406 54.898438 128.742188 56.132812 128.582031 57.527344 Z M 128.582031 57.527344 " fill-opacity="1" fill-rule="nonzero"/><path fill="#0b1220" d="M 163.136719 74.625 C 161.632812 74.625 160.367188 74.390625 159.335938 73.929688 C 158.316406 73.46875 157.480469 72.832031 156.839844 72.019531 C 156.203125 71.199219 155.75 70.210938 155.476562 69.046875 C 155.203125 67.890625 155.066406 66.609375 155.066406 65.214844 L 155.066406 49.570312 L 150.886719 49.570312 L 150.886719 45.964844 L 155.308594 45.675781 L 155.886719 37.765625 L 159.898438 37.765625 L 159.898438 45.675781 L 167.5 45.675781 L 167.5 49.570312 L 159.898438 49.570312 L 159.898438 65.257812 C 159.898438 67.011719 160.214844 68.359375 160.851562 69.304688 C 161.488281 70.257812 162.617188 70.730469 164.242188 70.730469 C 164.746094 70.730469 165.289062 70.65625 165.863281 70.503906 C 166.445312 70.34375 166.972656 70.167969 167.4375 69.972656 L 168.378906 73.582031 C 167.597656 73.851562 166.757812 74.097656 165.847656 74.308594 C 164.941406 74.519531 164.035156 74.625 163.136719 74.625 Z M 163.136719 74.625 " fill-opacity="1" fill-rule="nonzero"/><path fill="#0b1220" d="M 184.515625 74.625 C 182.613281 74.625 180.84375 74.285156 179.199219 73.609375 C 177.550781 72.9375 176.117188 71.964844 174.898438 70.699219 C 173.6875 69.4375 172.726562 67.898438 172.023438 66.078125 C 171.324219 64.257812 170.976562 62.191406 170.976562 59.863281 C 170.976562 57.539062 171.332031 55.460938 172.050781 53.617188 C 172.765625 51.769531 173.71875 50.207031 174.898438 48.933594 C 176.078125 47.652344 177.425781 46.671875 178.941406 45.996094 C 180.457031 45.320312 182.023438 44.980469 183.652344 44.980469 C 185.425781 44.980469 187.019531 45.289062 188.4375 45.902344 C 189.847656 46.519531 191.027344 47.414062 191.980469 48.585938 C 192.925781 49.75 193.652344 51.144531 194.160156 52.769531 C 194.664062 54.398438 194.917969 56.21875 194.917969 58.226562 C 194.917969 58.734375 194.90625 59.226562 194.886719 59.710938 C 194.863281 60.195312 194.8125 60.617188 194.734375 60.96875 L 175.6875 60.96875 C 175.875 63.992188 176.8125 66.386719 178.503906 68.152344 C 180.1875 69.914062 182.386719 70.792969 185.105469 70.792969 C 186.457031 70.792969 187.703125 70.589844 188.84375 70.183594 C 189.984375 69.773438 191.078125 69.238281 192.128906 68.578125 L 193.8125 71.714844 C 192.570312 72.496094 191.191406 73.179688 189.675781 73.761719 C 188.171875 74.339844 186.453125 74.625 184.515625 74.625 Z M 175.625 57.527344 L 190.738281 57.527344 C 190.738281 54.660156 190.125 52.480469 188.90625 50.996094 C 187.683594 49.503906 185.96875 48.753906 183.757812 48.753906 C 182.757812 48.753906 181.796875 48.949219 180.878906 49.34375 C 179.972656 49.730469 179.144531 50.300781 178.410156 51.058594 C 177.683594 51.808594 177.078125 52.722656 176.59375 53.816406 C 176.109375 54.898438 175.785156 56.132812 175.625 57.527344 Z M 175.625 57.527344 " fill-opacity="1" fill-rule="nonzero"/><path fill="#0b1220" d="M 211.519531 74.625 C 207.953125 74.625 205.117188 73.347656 203.007812 70.792969 C 200.894531 68.238281 199.84375 64.59375 199.84375 59.863281 C 199.84375 57.570312 200.179688 55.503906 200.859375 53.664062 C 201.542969 51.824219 202.449219 50.269531 203.570312 48.996094 C 204.6875 47.714844 205.984375 46.722656 207.460938 46.023438 C 208.933594 45.328125 210.480469 44.980469 212.109375 44.980469 C 213.734375 44.980469 215.144531 45.273438 216.347656 45.859375 C 217.546875 46.433594 218.761719 47.222656 219.996094 48.222656 L 219.769531 43.402344 L 219.769531 32.535156 L 224.585938 32.535156 L 224.585938 73.929688 L 220.648438 73.929688 L 220.238281 70.609375 L 220.058594 70.609375 C 218.9375 71.699219 217.652344 72.648438 216.195312 73.445312 C 214.742188 74.230469 213.183594 74.625 211.519531 74.625 Z M 212.5625 70.609375 C 213.882812 70.609375 215.125 70.292969 216.289062 69.65625 C 217.445312 69.019531 218.609375 68.039062 219.769531 66.714844 L 219.769531 51.949219 C 218.566406 50.871094 217.410156 50.109375 216.304688 49.664062 C 215.203125 49.207031 214.070312 48.980469 212.910156 48.980469 C 211.789062 48.980469 210.734375 49.246094 209.746094 49.769531 C 208.765625 50.296875 207.90625 51.035156 207.171875 51.980469 C 206.433594 52.933594 205.847656 54.070312 205.414062 55.390625 C 204.992188 56.707031 204.78125 58.175781 204.78125 59.800781 C 204.78125 63.210938 205.453125 65.863281 206.808594 67.761719 C 208.171875 69.664062 210.085938 70.609375 212.5625 70.609375 Z M 212.5625 70.609375 " fill-opacity="1" fill-rule="nonzero"/><path fill="#0b1220" d="M 240.617188 74.625 C 238.253906 74.625 236.285156 73.929688 234.710938 72.535156 C 233.144531 71.140625 232.363281 69.164062 232.363281 66.609375 C 232.363281 63.507812 233.734375 61.132812 236.484375 59.484375 C 239.238281 57.839844 243.636719 56.6875 249.6875 56.027344 C 249.6875 55.128906 249.59375 54.253906 249.414062 53.40625 C 249.238281 52.558594 248.945312 51.808594 248.519531 51.148438 C 248.097656 50.480469 247.507812 49.945312 246.75 49.542969 C 245.992188 49.140625 245.03125 48.933594 243.871094 48.933594 C 242.242188 48.933594 240.714844 49.246094 239.285156 49.859375 C 237.847656 50.476562 236.574219 51.175781 235.453125 51.949219 L 233.589844 48.632812 C 234.898438 47.78125 236.503906 46.964844 238.40625 46.175781 C 240.300781 45.378906 242.394531 44.980469 244.691406 44.980469 C 248.128906 44.980469 250.625 46.035156 252.167969 48.148438 C 253.722656 50.261719 254.5 53.082031 254.5 56.605469 L 254.5 73.929688 L 250.550781 73.929688 L 250.140625 70.5625 L 249.972656 70.5625 C 248.617188 71.6875 247.164062 72.648438 245.613281 73.445312 C 244.070312 74.230469 242.402344 74.625 240.617188 74.625 Z M 242.007812 70.792969 C 243.371094 70.792969 244.648438 70.472656 245.839844 69.835938 C 247.039062 69.191406 248.324219 68.253906 249.6875 67.015625 L 249.6875 59.164062 C 247.324219 59.46875 245.332031 59.839844 243.71875 60.273438 C 242.117188 60.695312 240.816406 61.203125 239.828125 61.789062 C 238.847656 62.363281 238.132812 63.03125 237.679688 63.789062 C 237.230469 64.539062 237.011719 65.363281 237.011719 66.257812 C 237.011719 67.890625 237.496094 69.046875 238.464844 69.746094 C 239.433594 70.441406 240.617188 70.792969 242.007812 70.792969 Z M 242.007812 70.792969 " fill-opacity="1" fill-rule="nonzero"/><path fill="#0b1220" d="M 271.453125 74.625 C 269.945312 74.625 268.679688 74.390625 267.652344 73.929688 C 266.628906 73.46875 265.796875 72.832031 265.152344 72.019531 C 264.515625 71.199219 264.0625 70.210938 263.789062 69.046875 C 263.515625 67.890625 263.378906 66.609375 263.378906 65.214844 L 263.378906 49.570312 L 259.203125 49.570312 L 259.203125 45.964844 L 263.621094 45.675781 L 264.199219 37.765625 L 268.210938 37.765625 L 268.210938 45.675781 L 275.8125 45.675781 L 275.8125 49.570312 L 268.210938 49.570312 L 268.210938 65.257812 C 268.210938 67.011719 268.527344 68.359375 269.164062 69.304688 C 269.800781 70.257812 270.929688 70.730469 272.558594 70.730469 C 273.058594 70.730469 273.601562 70.65625 274.175781 70.503906 C 274.761719 70.34375 275.285156 70.167969 275.75 69.972656 L 276.691406 73.582031 C 275.910156 73.851562 275.070312 74.097656 274.160156 74.308594 C 273.253906 74.519531 272.347656 74.625 271.453125 74.625 Z M 271.453125 74.625 " fill-opacity="1" fill-rule="nonzero"/><path fill="#0b1220" d="M 287.484375 74.625 C 285.121094 74.625 283.152344 73.929688 281.578125 72.535156 C 280.011719 71.140625 279.230469 69.164062 279.230469 66.609375 C 279.230469 63.507812 280.601562 61.132812 283.351562 59.484375 C 286.105469 57.839844 290.503906 56.6875 296.554688 56.027344 C 296.554688 55.128906 296.464844 54.253906 296.28125 53.40625 C 296.109375 52.558594 295.8125 51.808594 295.386719 51.148438 C 294.964844 50.480469 294.375 49.945312 293.617188 49.542969 C 292.859375 49.140625 291.898438 48.933594 290.738281 48.933594 C 289.113281 48.933594 287.582031 49.246094 286.152344 49.859375 C 284.71875 50.476562 283.441406 51.175781 282.320312 51.949219 L 280.457031 48.632812 C 281.769531 47.78125 283.375 46.964844 285.273438 46.175781 C 287.171875 45.378906 289.261719 44.980469 291.558594 44.980469 C 295 44.980469 297.492188 46.035156 299.039062 48.148438 C 300.589844 50.261719 301.371094 53.082031 301.371094 56.605469 L 301.371094 73.929688 L 297.417969 73.929688 L 297.007812 70.5625 L 296.84375 70.5625 C 295.488281 71.6875 294.035156 72.648438 292.480469 73.445312 C 290.9375 74.230469 289.269531 74.625 287.484375 74.625 Z M 288.878906 70.792969 C 290.242188 70.792969 291.515625 70.472656 292.707031 69.835938 C 293.910156 69.191406 295.191406 68.253906 296.554688 67.015625 L 296.554688 59.164062 C 294.191406 59.46875 292.199219 59.839844 290.589844 60.273438 C 288.984375 60.695312 287.683594 61.203125 286.695312 61.789062 C 285.714844 62.363281 285 63.03125 284.546875 63.789062 C 284.101562 64.539062 283.878906 65.363281 283.878906 66.257812 C 283.878906 67.890625 284.367188 69.046875 285.335938 69.746094 C 286.304688 70.441406 287.484375 70.792969 288.878906 70.792969 Z M 288.878906 70.792969 " fill-opacity="1" fill-rule="nonzero"/><path fill="#0b1220" d="M 67.914062 51.25 L 68.261719 54.628906 L 32.964844 58.285156 C 33.925781 61.679688 35.890625 64.332031 38.855469 66.242188 C 41.886719 68.210938 45.097656 69.023438 48.503906 68.667969 C 50.824219 68.425781 52.988281 67.648438 54.996094 66.332031 C 56.953125 65.089844 58.542969 63.453125 59.753906 61.421875 L 67.035156 60.664062 C 65.734375 64.675781 63.484375 67.949219 60.296875 70.484375 C 57.066406 73.105469 53.6875 74.59375 50.167969 74.957031 C 46.582031 75.332031 43.484375 75.09375 40.871094 74.246094 C 38.207031 73.417969 35.832031 72.164062 33.753906 70.484375 C 29.21875 66.890625 26.652344 62.171875 26.046875 56.328125 C 25.449219 50.539062 26.992188 45.363281 30.679688 40.792969 C 34.34375 36.304688 39.0625 33.765625 44.835938 33.167969 C 50.441406 32.59375 55.535156 34.058594 60.132812 37.5625 C 64.742188 41.152344 67.339844 45.714844 67.914062 51.25 Z M 60.949219 49.855469 C 59.867188 46.523438 57.875 43.871094 54.96875 41.898438 C 52.058594 39.980469 48.898438 39.195312 45.488281 39.550781 C 40.269531 40.085938 36.40625 42.855469 33.90625 47.855469 C 33.148438 49.402344 32.679688 51.050781 32.496094 52.796875 Z M 60.949219 49.855469 " fill-opacity="1" fill-rule="nonzero"/><path fill="#0b1220" d="M 60.285156 64.875 L 59.863281 61.449219 L 95.671875 57.007812 C 94.625 53.5625 92.578125 50.902344 89.527344 49.023438 C 86.398438 47.089844 83.113281 46.34375 79.667969 46.777344 C 77.328125 47.058594 75.136719 47.890625 73.097656 49.28125 C 71.140625 50.582031 69.570312 52.28125 68.386719 54.371094 L 60.984375 55.296875 C 62.226562 51.191406 64.441406 47.816406 67.628906 45.171875 C 70.863281 42.445312 74.261719 40.855469 77.835938 40.414062 C 81.480469 39.957031 84.636719 40.128906 87.300781 40.925781 C 90.027344 41.722656 92.460938 42.957031 94.597656 44.625 C 99.316406 48.179688 102.03125 52.925781 102.761719 58.859375 C 103.488281 64.71875 102.015625 70.015625 98.339844 74.742188 C 94.726562 79.382812 89.992188 82.066406 84.136719 82.808594 C 78.453125 83.503906 73.234375 82.113281 68.480469 78.640625 C 63.722656 75.09375 60.996094 70.503906 60.285156 64.875 Z M 67.402344 66.164062 C 68.578125 69.53125 70.667969 72.1875 73.671875 74.136719 C 76.664062 76.015625 79.878906 76.746094 83.332031 76.320312 C 88.632812 75.652344 92.5 72.757812 94.929688 67.636719 C 95.667969 66.035156 96.121094 64.347656 96.277344 62.570312 Z M 67.402344 66.164062 " fill-opacity="1" fill-rule="nonzero"/><path stroke-linecap="butt" transform="matrix(-0.026257, -0.264865, 0.264596, -0.0262837, 84.275586, 88.981448)" fill="none" stroke-linejoin="miter" d="M 0.00611067 2.50221 L 194.769017 2.50449 " stroke="#ffffff" stroke-width="5" stroke-opacity="1" stroke-miterlimit="4"/><path stroke-linecap="butt" transform="matrix(-0.026257, -0.264865, 0.264596, -0.0262837, 49.122127, 78.505495)" fill="none" stroke-linejoin="miter" d="M -0.00663029 2.50516 L 194.77088 2.50889 " stroke="#ffffff" stroke-width="5" stroke-opacity="1" stroke-miterlimit="4"/></svg>